<?xml version="1.0" encoding="UTF-8"?>
<svg id="Layer_2" data-name="Layer 2" xmlns="http://www.w3.org/2000/svg" viewBox="0 0 866.18 866.18">
  <defs>
    <style>
      .cls-1 {
        fill: #fbfdff;
      }

      .cls-2 {
        fill: #fb0e00;
      }
    </style>
  </defs>
  <g id="_ëîé_1" data-name="‘ëîé_1">
    <g>
      <rect class="cls-2" width="866.18" height="866.18" rx="135.84" ry="135.84"/>
      <path class="cls-1" d="M187.76,725.32c-25.71,2.13-36.02-5.31-39.76-8.52-20.63-17.74-12.41-54.15-12.02-55.73,3.41-14.21,12.56-32.25,67.53-68.9,23.08-15.39,55.24-34.73,96.19-53.21,16.66-29.25,28.84-54.37,37.27-73,8.7-19.2,15.15-35.31,21.1-50.16,9.31-23.25,16.67-43.14,22.03-58.13-8.2-26.56-14.27-48.87-18.49-65.25-7.58-29.38-9.24-39.72-10.11-50.54-2.23-27.96,1.89-46,3.28-51.57,4.1-16.43,6.81-27.3,16.88-36.57,11.35-10.45,28.5-15.61,44.07-12.19,23.19,5.09,34.29,27.31,40.79,40.32,16.21,32.45,12.91,63.86,9.38,93.76-2.8,23.73-9.82,59.6-29.4,100.57,11.56,19.43,25.51,40.54,42.32,62.42,14.91,19.42,29.78,36.47,43.9,51.31,7.57-2.06,158.17-41.56,197.88,18.33,2.84,4.29,17.15,27.23,9.14,48.54-10.22,27.15-49.8,33.36-58.25,34.69-39.64,6.22-74.26-11-122.11-34.79-18.68-9.29-33.44-17.98-42.98-23.88-19.81,1.68-42.92,5.07-68.22,11.6-32.92,8.49-60.38,19.93-81.86,30.7-17.01,39.39-38.43,66.54-53.89,83.22-18.42,19.89-58.82,62.36-114.66,66.99ZM290.52,587.24c-17.72,3.13-63.84,13.78-101.33,54.03-10.72,11.51-18.71,23.26-24.67,34.01-5.64,10.16,3.64,22.08,14.87,19.08,11.81-3.15,20.71-7.37,26.85-10.8,22.09-12.34,35.34-29.45,60.41-62.46,10.63-14,18.7-25.95,23.86-33.87ZM548.01,515.07c5.19,5.74,42.28,45.5,94.14,40.25,9.23-.94,17.46-3.15,24.56-5.86,9.8-3.74,12.76-16.42,5.53-24.03-2.85-3-6.25-5.88-10.31-8.32-13.25-7.98-25.9-6.72-66.98-4.42-9.24.52-25.68,1.4-46.94,2.38ZM421.15,422.74c-5.21,13.97-10.33,28.44-15.34,43.38-6,17.91-11.45,35.39-16.4,52.37,10.07-4.6,21.55-9.18,34.38-13.22,18.32-5.78,35.19-9.14,49.72-11.11-9.03-10.99-18.25-22.8-27.51-35.44-9.01-12.31-17.28-24.34-24.86-35.97ZM402.64,172.01c-7.24-.9-14,10.97-15.81,14.14-7.84,13.78-7.39,27.26-6.41,48.28.53,11.35,1.29,25.51,6.88,43.38,3.31,10.58,7.27,19.14,10.58,25.39,6.17-8.55,22.97-34.19,22.51-70.61-.29-23.15-3.26-37.42-6.64-45.95-5.04-12.72-8.95-14.35-11.12-14.62Z"/>
    </g>
  </g>
</svg>