<?xml version="1.0" encoding="UTF-8"?>
<svg id="Layer_2" data-name="Layer 2" xmlns="http://www.w3.org/2000/svg" viewBox="0 0 866.18 866.18">
  <defs>
    <style>
      .cls-1 {
        fill: #ec4869;
      }

      .cls-2 {
        fill: #43081f;
      }
    </style>
  </defs>
  <g id="_ëîé_1" data-name="‘ëîé_1">
    <g>
      <rect class="cls-2" width="866.18" height="866.18" rx="135.84" ry="135.84"/>
      <g>
        <rect class="cls-1" x="226.65" y="258.34" width="85.94" height="384.21"/>
        <path class="cls-1" d="M553.59,220.06v120.85h-44.68c-74.18,0-134.32,60.14-134.32,134.32v36.55c0,74.75,61.01,134.91,135.75,134.33,7.27-.06,14.71-.32,22.31-.83,43.97-2.92,80.35-13,106.88-22.73V220.06h-85.94ZM554.72,570.41c-8.03,2.42-18.22,4.52-30.07,4.74-.3,0-.61,0-.91.01-34.97.34-63.22-28.58-63.22-63.55v-41.27c0-35.09,28.44-63.53,63.53-63.53h29.53c.38,54.53.75,109.07,1.13,163.6Z"/>
      </g>
    </g>
  </g>
</svg>